<svg width="50" height="31" viewBox="0 0 50 31" fill="none" xmlns="http://www.w3.org/2000/svg">
<path d="M2.28363 2.48793C3.60571 3.18503 21.9707 13.1968 22.6558 13.5574C23.3409 13.918 24.038 14.0863 25.1197 14.0863C26.2014 14.0863 26.8985 13.918 27.5836 13.5574C28.2687 13.1968 46.6337 3.18503 47.9558 2.48793C48.4486 2.23553 49.2779 1.77881 49.4581 1.26199C49.7706 0.348551 49.4341 0 48.1 0H25.1197H2.1394C0.80529 0 0.468758 0.36057 0.781252 1.26199C0.961537 1.79083 1.79085 2.23553 2.28363 2.48793Z" fill="black"/>
<path d="M49.0014 3.02877C48.0158 3.53357 39.1699 9.83152 33.3166 13.6175L43.1962 24.7351C43.4366 24.9754 43.5448 25.2639 43.4126 25.4081C43.2683 25.5403 42.9559 25.4682 42.7035 25.2399L30.8527 15.2401C29.0619 16.3939 27.7999 17.1871 27.5836 17.3073C26.6581 17.7761 26.0091 17.8362 25.1197 17.8362C24.2303 17.8362 23.5812 17.7761 22.6558 17.3073C22.4274 17.1871 21.1775 16.3939 19.3866 15.2401L7.5359 25.2399C7.29552 25.4802 6.97101 25.5523 6.82678 25.4081C6.68256 25.2759 6.79073 24.9754 7.03111 24.7351L16.8987 13.6175C11.0454 9.83152 2.10332 3.53357 1.11777 3.02877C0.0600948 2.48792 0 3.12492 0 3.6177C0 4.11048 0 28.2566 0 28.2566C0 29.3744 1.6466 30.7686 2.82446 30.7686H25.1197H47.4149C48.5928 30.7686 49.999 29.3624 49.999 28.2566C49.999 28.2566 49.999 4.09846 49.999 3.6177C49.999 3.11291 50.0711 2.48792 49.0014 3.02877Z" fill="black"/>
</svg>
