<svg width="50" height="50" viewBox="0 0 50 50" fill="none" xmlns="http://www.w3.org/2000/svg">
<path d="M43.2766 6.10352e-05H6.72335C3.01015 6.10352e-05 0 3.01021 0 6.72341V43.2767C0 46.9899 3.01015 50.0001 6.72335 50.0001H43.2766C46.9899 50.0001 50 46.9899 50 43.2767V6.72341C50 3.01021 46.9899 6.10352e-05 43.2766 6.10352e-05Z" fill="#2A66BC"/>
<path d="M16.6865 20.1483H10.7552V39.3225H16.6865V20.1483Z" fill="#FEFEFE"/>
<path d="M13.7208 16.8782C15.4933 16.8782 16.9303 15.4413 16.9303 13.6687C16.9303 11.8962 15.4933 10.4593 13.7208 10.4593C11.9483 10.4593 10.5114 11.8962 10.5114 13.6687C10.5114 15.4413 11.9483 16.8782 13.7208 16.8782Z" fill="#FEFEFE"/>
<path d="M34.8976 20.2914C34.8976 20.2914 33.248 19.7565 30.679 20.1204C29.7472 20.2396 28.861 20.594 28.1039 21.1502C27.4279 21.646 26.9114 22.3286 26.6181 23.114V20.1483H20.6868V39.3225H26.6181V28.8815C26.6181 27.2986 27.4671 25.7776 28.902 25.1214C29.2906 24.9422 29.7062 24.829 30.132 24.7866C30.132 24.7866 31.4832 24.5161 32.667 25.8491C33.3087 26.5769 33.6046 27.54 33.6046 28.5067V39.3298H39.5359V26.0796C39.7979 21.24 34.8976 20.2914 34.8976 20.2914Z" fill="#FEFEFE"/>
</svg>
