<svg width="50" height="50" viewBox="0 0 50 50" fill="none" xmlns="http://www.w3.org/2000/svg">
<path d="M46.875 0H3.125C1.40625 0 0 1.40625 0 3.125V46.875C0 48.5937 1.40625 50 3.125 50H46.875C48.5937 50 50 48.5937 50 46.875V3.125C50 1.40625 48.5937 0 46.875 0ZM47.9167 46.875C47.9167 47.4479 47.4479 47.9167 46.875 47.9167H3.125C2.55208 47.9167 2.08333 47.4479 2.08333 46.875V10.4167H47.9167V46.875ZM47.9167 8.33333H2.08333V3.125C2.08333 2.55208 2.55208 2.08333 3.125 2.08333H46.875C47.4479 2.08333 47.9167 2.55208 47.9167 3.125V8.33333Z" fill="white"/>
<path d="M44.792 4.16663H42.7087C42.1357 4.16663 41.667 4.63538 41.667 5.20829C41.667 5.78121 42.1357 6.24996 42.7087 6.24996H44.792C45.3649 6.24996 45.8337 5.78121 45.8337 5.20829C45.8337 4.63538 45.3649 4.16663 44.792 4.16663Z" fill="white"/>
<path d="M39.583 4.16663H37.4997C36.9268 4.16663 36.458 4.63538 36.458 5.20829C36.458 5.78121 36.9268 6.24996 37.4997 6.24996H39.583C40.1559 6.24996 40.6247 5.78121 40.6247 5.20829C40.6247 4.63538 40.1559 4.16663 39.583 4.16663Z" fill="white"/>
<path d="M34.375 4.16663H32.2917C31.7187 4.16663 31.25 4.63538 31.25 5.20829C31.25 5.78121 31.7187 6.24996 32.2917 6.24996H34.375C34.9479 6.24996 35.4167 5.78121 35.4167 5.20829C35.4167 4.63538 34.9479 4.16663 34.375 4.16663Z" fill="white"/>
<path d="M21.9899 4.16663H5.20866C4.63574 4.16663 4.16699 4.63538 4.16699 5.20829C4.16699 5.78121 4.63574 6.24996 5.20866 6.24996H21.9899C22.5628 6.24996 23.0316 5.78121 23.0316 5.20829C23.0316 4.63538 22.5628 4.16663 21.9899 4.16663Z" fill="white"/>
<path d="M6.24967 23.9583H43.7497C44.3226 23.9583 44.7913 23.4895 44.7913 22.9166V14.5833C44.7913 14.0104 44.3226 13.5416 43.7497 13.5416H6.24967C5.67676 13.5416 5.20801 14.0104 5.20801 14.5833V22.9166C5.20801 23.4895 5.67676 23.9583 6.24967 23.9583ZM7.29134 15.625H42.708V21.875H7.29134V15.625Z" fill="white"/>
<path d="M15.625 27.0834H7.29167C6.71875 27.0834 6.25 27.5521 6.25 28.125V36.4584C6.25 37.0313 6.71875 37.5 7.29167 37.5H15.625C16.1979 37.5 16.6667 37.0313 16.6667 36.4584V28.125C16.6667 27.5521 16.1979 27.0834 15.625 27.0834ZM14.5833 35.4167H8.33333V29.1667H14.5833V35.4167Z" fill="white"/>
<path d="M29.167 27.0834H20.8337C20.2607 27.0834 19.792 27.5521 19.792 28.125V36.4584C19.792 37.0313 20.2607 37.5 20.8337 37.5H29.167C29.7399 37.5 30.2087 37.0313 30.2087 36.4584V28.125C30.2087 27.5521 29.7399 27.0834 29.167 27.0834ZM28.1253 35.4167H21.8753V29.1667H28.1253V35.4167Z" fill="white"/>
<path d="M42.708 27.0834H34.3747C33.8018 27.0834 33.333 27.5521 33.333 28.125V36.4584C33.333 37.0313 33.8018 37.5 34.3747 37.5H42.708C43.2809 37.5 43.7497 37.0313 43.7497 36.4584V28.125C43.7497 27.5521 43.2809 27.0834 42.708 27.0834ZM41.6663 35.4167H35.4163V29.1667H41.6663V35.4167Z" fill="white"/>
<path d="M14.5837 39.5834H8.33366C7.76074 39.5834 7.29199 40.0521 7.29199 40.625C7.29199 41.198 7.76074 41.6667 8.33366 41.6667H14.5837C15.1566 41.6667 15.6253 41.198 15.6253 40.625C15.6253 40.0521 15.1566 39.5834 14.5837 39.5834Z" fill="white"/>
<path d="M28.1247 39.5834H21.8747C21.3018 39.5834 20.833 40.0521 20.833 40.625C20.833 41.198 21.3018 41.6667 21.8747 41.6667H28.1247C28.6976 41.6667 29.1663 41.198 29.1663 40.625C29.1663 40.0521 28.6976 39.5834 28.1247 39.5834Z" fill="white"/>
<path d="M41.6667 39.5834H35.4167C34.8437 39.5834 34.375 40.0521 34.375 40.625C34.375 41.198 34.8437 41.6667 35.4167 41.6667H41.6667C42.2396 41.6667 42.7083 41.198 42.7083 40.625C42.7083 40.0521 42.2396 39.5834 41.6667 39.5834Z" fill="white"/>
</svg>
