<svg width="50" height="50" viewBox="0 0 50 50" fill="none" xmlns="http://www.w3.org/2000/svg">
<path d="M43.2766 0H6.72335C3.01015 0 0 3.01015 0 6.72335V43.2766C0 46.9899 3.01015 50 6.72335 50H43.2766C46.9899 50 50 46.9899 50 43.2766V6.72335C50 3.01015 46.9899 0 43.2766 0Z" fill="#8652F6"/>
<path d="M16.6283 9.9704L10.6339 15.8629V37.3199H17.8448V43.2766L23.7373 37.3842H28.5418L39.3661 26.7854V9.9704H16.6283Z" fill="black"/>
<path d="M17.9091 12.2544V30.1017H23.4717V33.9891L27.3179 30.1441H32.3019L37.0591 25.4876L37.0603 12.2544H17.9091Z" fill="white"/>
<path d="M26.8121 16.4391H24.4214V23.57H26.8121V16.4391Z" fill="black"/>
<path d="M33.43 16.4391H31.0393V23.57H33.43V16.4391Z" fill="black"/>
</svg>
