<svg width="50" height="50" viewBox="0 0 50 51" fill="none" xmlns="http://www.w3.org/2000/svg">
<path d="M42.6952 7.30176C40.3926 4.97779 37.6505 3.13534 34.6286 1.88176C31.6068 0.628187 28.3657 -0.0114398 25.0942 0.000154855C11.3856 0.000154855 0.213461 11.1692 0.200904 24.8809C0.200904 29.2725 1.34982 33.5448 3.51896 37.3275L0 50.2262L13.1969 46.7668C16.8477 48.7536 20.9377 49.795 25.0942 49.7961H25.1067C38.8184 49.7961 49.9874 38.6271 50 24.9028C50.0031 21.632 49.359 18.3929 48.1048 15.3721C46.8506 12.3513 45.0142 9.60849 42.6952 7.30176ZM25.0942 45.5834C21.3869 45.5846 17.7477 44.587 14.5593 42.6954L13.8059 42.2434L5.97689 44.2963L8.06755 36.6589L7.57785 35.8709C5.50542 32.5759 4.40936 28.7609 4.41675 24.8683C4.41675 13.4858 13.6991 4.2003 25.1067 4.2003C27.8244 4.19543 30.5161 4.72854 33.0268 5.7689C35.5375 6.80926 37.8174 8.33629 39.735 10.262C41.6594 12.1801 43.185 14.4603 44.2238 16.971C45.2625 19.4817 45.7939 22.1732 45.7873 24.8903C45.7747 36.3136 36.4923 45.5834 25.0942 45.5834ZM36.4421 30.0949C35.8237 29.7842 32.7693 28.2805 32.1949 28.0671C31.6235 27.863 31.206 27.7563 30.798 28.3778C30.3805 28.9963 29.1876 30.4057 28.8297 30.8107C28.4719 31.2282 28.1014 31.2753 27.4799 30.9676C26.8615 30.6537 24.8556 30.0008 22.4824 27.8756C20.6303 26.2275 19.3904 24.1871 19.02 23.5687C18.6621 22.9472 18.9854 22.6144 19.2962 22.3036C19.5693 22.0274 19.9146 21.5754 20.2254 21.2175C20.5393 20.8596 20.6429 20.596 20.8469 20.1816C21.051 19.7609 20.9537 19.4031 20.7998 19.0923C20.6429 18.7815 19.4029 15.7146 18.8787 14.4778C18.3764 13.2567 17.8648 13.4262 17.4818 13.4105C17.1239 13.3885 16.7064 13.3885 16.2889 13.3885C15.9736 13.3964 15.6634 13.4693 15.3776 13.6027C15.0918 13.7361 14.8367 13.9272 14.6283 14.1639C14.057 14.7854 12.4592 16.2891 12.4592 19.356C12.4592 22.4229 14.688 25.3706 15.0019 25.7881C15.3095 26.2056 19.3778 32.4807 25.6215 35.1803C27.0969 35.8239 28.2584 36.2037 29.1656 36.4925C30.6567 36.9696 32.0034 36.8974 33.077 36.7436C34.2698 36.5615 36.7529 35.2368 37.2771 33.7834C37.7919 32.3269 37.7919 31.0838 37.635 30.8232C37.4812 30.5595 37.0637 30.4057 36.4421 30.0949Z" fill="#2CB742"/>
</svg>
